<?xml version="1.0" encoding="UTF-8" standalone="no"?>
<svg
   xmlns:osb="http://www.openswatchbook.org/uri/2009/osb"
   xmlns:dc="http://purl.org/dc/elements/1.1/"
   xmlns:cc="http://creativecommons.org/ns#"
   xmlns:rdf="http://www.w3.org/1999/02/22-rdf-syntax-ns#"
   xmlns:svg="http://www.w3.org/2000/svg"
   xmlns="http://www.w3.org/2000/svg"
   xmlns:sodipodi="http://sodipodi.sourceforge.net/DTD/sodipodi-0.dtd"
   xmlns:inkscape="http://www.inkscape.org/namespaces/inkscape"
   width="800px"
   height="800px"
   viewBox="0 0 800 800"
   version="1.1"
   id="SVGRoot"
   sodipodi:docname="icon.svg"
   inkscape:version="1.0.2-2 (e86c870879, 2021-01-15)">
  <defs
     id="defs3128">
    <inkscape:path-effect
       effect="bspline"
       id="path-effect3401"
       is_visible="true"
       lpeversion="1"
       weight="33.333333"
       steps="2"
       helper_size="0"
       apply_no_weight="true"
       apply_with_weight="true"
       only_selected="false" />
    <inkscape:path-effect
       effect="bspline"
       id="path-effect3397"
       is_visible="true"
       lpeversion="1"
       weight="33.333333"
       steps="2"
       helper_size="0"
       apply_no_weight="true"
       apply_with_weight="true"
       only_selected="false" />
    <inkscape:path-effect
       effect="bspline"
       id="path-effect3393"
       is_visible="true"
       lpeversion="1"
       weight="33.333333"
       steps="2"
       helper_size="0"
       apply_no_weight="true"
       apply_with_weight="true"
       only_selected="false" />
    <inkscape:path-effect
       effect="bspline"
       id="path-effect3387"
       is_visible="true"
       lpeversion="1"
       weight="33.333333"
       steps="2"
       helper_size="0"
       apply_no_weight="true"
       apply_with_weight="true"
       only_selected="false" />
    <inkscape:path-effect
       effect="bspline"
       id="path-effect3383"
       is_visible="true"
       lpeversion="1"
       weight="33.333333"
       steps="2"
       helper_size="0"
       apply_no_weight="true"
       apply_with_weight="true"
       only_selected="false" />
    <inkscape:path-effect
       effect="bspline"
       id="path-effect3379"
       is_visible="true"
       lpeversion="1"
       weight="33.333333"
       steps="2"
       helper_size="0"
       apply_no_weight="true"
       apply_with_weight="true"
       only_selected="false" />
    <inkscape:path-effect
       effect="bspline"
       id="path-effect3375"
       is_visible="true"
       lpeversion="1"
       weight="33.333333"
       steps="2"
       helper_size="0"
       apply_no_weight="true"
       apply_with_weight="true"
       only_selected="false" />
    <inkscape:path-effect
       effect="bspline"
       id="path-effect3349"
       is_visible="true"
       lpeversion="1"
       weight="33.333333"
       steps="2"
       helper_size="0"
       apply_no_weight="true"
       apply_with_weight="true"
       only_selected="false" />
    <inkscape:path-effect
       effect="bspline"
       id="path-effect3343"
       is_visible="true"
       lpeversion="1"
       weight="33.333333"
       steps="2"
       helper_size="0"
       apply_no_weight="true"
       apply_with_weight="true"
       only_selected="false" />
    <inkscape:path-effect
       effect="bspline"
       id="path-effect3339"
       is_visible="true"
       lpeversion="1"
       weight="33.333333"
       steps="2"
       helper_size="0"
       apply_no_weight="true"
       apply_with_weight="true"
       only_selected="false" />
    <inkscape:path-effect
       effect="bspline"
       id="path-effect3335"
       is_visible="true"
       lpeversion="1"
       weight="33.333333"
       steps="2"
       helper_size="0"
       apply_no_weight="true"
       apply_with_weight="true"
       only_selected="false" />
    <inkscape:path-effect
       effect="bspline"
       id="path-effect3331"
       is_visible="true"
       lpeversion="1"
       weight="33.333333"
       steps="2"
       helper_size="0"
       apply_no_weight="true"
       apply_with_weight="true"
       only_selected="false" />
    <inkscape:path-effect
       effect="bspline"
       id="path-effect3327"
       is_visible="true"
       lpeversion="1"
       weight="33.333333"
       steps="2"
       helper_size="0"
       apply_no_weight="true"
       apply_with_weight="true"
       only_selected="false" />
    <inkscape:path-effect
       effect="bspline"
       id="path-effect3321"
       is_visible="true"
       lpeversion="1"
       weight="33.333333"
       steps="2"
       helper_size="0"
       apply_no_weight="true"
       apply_with_weight="true"
       only_selected="false" />
    <inkscape:path-effect
       effect="bspline"
       id="path-effect3313"
       is_visible="true"
       lpeversion="1"
       weight="33.333333"
       steps="2"
       helper_size="0"
       apply_no_weight="true"
       apply_with_weight="true"
       only_selected="false" />
    <inkscape:path-effect
       effect="bspline"
       id="path-effect3301"
       is_visible="true"
       lpeversion="1"
       weight="33.333333"
       steps="2"
       helper_size="0"
       apply_no_weight="true"
       apply_with_weight="true"
       only_selected="false" />
    <linearGradient
       id="linearGradient3249"
       osb:paint="solid">
      <stop
         style="stop-color:#c83737;stop-opacity:1;"
         offset="0"
         id="stop3247" />
    </linearGradient>
    <inkscape:path-effect
       effect="bspline"
       id="path-effect1149"
       is_visible="true"
       lpeversion="1"
       weight="33.333333"
       steps="2"
       helper_size="0"
       apply_no_weight="true"
       apply_with_weight="true"
       only_selected="false" />
    <inkscape:path-effect
       effect="bspline"
       id="path-effect1141"
       is_visible="true"
       lpeversion="1"
       weight="33.333333"
       steps="2"
       helper_size="0"
       apply_no_weight="true"
       apply_with_weight="true"
       only_selected="false" />
    <inkscape:path-effect
       effect="bspline"
       id="path-effect1137"
       is_visible="true"
       lpeversion="1"
       weight="33.333333"
       steps="2"
       helper_size="0"
       apply_no_weight="true"
       apply_with_weight="true"
       only_selected="false" />
    <inkscape:path-effect
       effect="bspline"
       id="path-effect1133"
       is_visible="true"
       lpeversion="1"
       weight="33.333333"
       steps="2"
       helper_size="0"
       apply_no_weight="true"
       apply_with_weight="true"
       only_selected="false" />
    <inkscape:path-effect
       effect="bspline"
       id="path-effect1111"
       is_visible="true"
       lpeversion="1"
       weight="33.333333"
       steps="2"
       helper_size="0"
       apply_no_weight="true"
       apply_with_weight="true"
       only_selected="false" />
    <inkscape:path-effect
       effect="bspline"
       id="path-effect1107"
       is_visible="true"
       lpeversion="1"
       weight="33.333333"
       steps="2"
       helper_size="0"
       apply_no_weight="true"
       apply_with_weight="true"
       only_selected="false" />
    <inkscape:path-effect
       effect="bspline"
       id="path-effect1091"
       is_visible="true"
       lpeversion="1"
       weight="33.333333"
       steps="2"
       helper_size="0"
       apply_no_weight="true"
       apply_with_weight="true"
       only_selected="false" />
    <inkscape:path-effect
       effect="bspline"
       id="path-effect1079"
       is_visible="true"
       lpeversion="1"
       weight="33.333333"
       steps="2"
       helper_size="0"
       apply_no_weight="true"
       apply_with_weight="true"
       only_selected="false" />
    <inkscape:path-effect
       effect="bspline"
       id="path-effect1075"
       is_visible="true"
       lpeversion="1"
       weight="33.333333"
       steps="2"
       helper_size="0"
       apply_no_weight="true"
       apply_with_weight="true"
       only_selected="false" />
    <inkscape:path-effect
       effect="bspline"
       id="path-effect1071"
       is_visible="true"
       lpeversion="1"
       weight="33.333333"
       steps="2"
       helper_size="0"
       apply_no_weight="true"
       apply_with_weight="true"
       only_selected="false" />
    <inkscape:path-effect
       effect="bspline"
       id="path-effect3724"
       is_visible="true"
       lpeversion="1"
       weight="33.333333"
       steps="2"
       helper_size="0"
       apply_no_weight="true"
       apply_with_weight="true"
       only_selected="false" />
    <inkscape:path-effect
       effect="bspline"
       id="path-effect3720"
       is_visible="true"
       lpeversion="1"
       weight="33.333333"
       steps="2"
       helper_size="0"
       apply_no_weight="true"
       apply_with_weight="true"
       only_selected="false" />
    <inkscape:path-effect
       effect="bspline"
       id="path-effect3716"
       is_visible="true"
       lpeversion="1"
       weight="33.333333"
       steps="2"
       helper_size="0"
       apply_no_weight="true"
       apply_with_weight="true"
       only_selected="false" />
    <inkscape:path-effect
       effect="bspline"
       id="path-effect3712"
       is_visible="true"
       lpeversion="1"
       weight="33.333333"
       steps="2"
       helper_size="0"
       apply_no_weight="true"
       apply_with_weight="true"
       only_selected="false" />
    <inkscape:path-effect
       effect="bspline"
       id="path-effect3708"
       is_visible="true"
       lpeversion="1"
       weight="33.333333"
       steps="2"
       helper_size="0"
       apply_no_weight="true"
       apply_with_weight="true"
       only_selected="false" />
    <inkscape:path-effect
       effect="bspline"
       id="path-effect3704"
       is_visible="true"
       lpeversion="1"
       weight="33.333333"
       steps="2"
       helper_size="0"
       apply_no_weight="true"
       apply_with_weight="true"
       only_selected="false" />
  </defs>
  <sodipodi:namedview
     id="base"
     pagecolor="#ffffff"
     bordercolor="#666666"
     borderopacity="1.0"
     inkscape:pageopacity="0.0"
     inkscape:pageshadow="2"
     inkscape:zoom="0.66702039"
     inkscape:cx="774.04707"
     inkscape:cy="406.41975"
     inkscape:document-units="px"
     inkscape:current-layer="layer1"
     inkscape:document-rotation="0"
     showgrid="false"
     inkscape:window-width="1920"
     inkscape:window-height="1001"
     inkscape:window-x="-9"
     inkscape:window-y="-9"
     inkscape:window-maximized="1" />
  <metadata
     id="metadata3131">
    <rdf:RDF>
      <cc:Work
         rdf:about="">
        <dc:format>image/svg+xml</dc:format>
        <dc:type
           rdf:resource="http://purl.org/dc/dcmitype/StillImage" />
        <dc:title />
      </cc:Work>
    </rdf:RDF>
  </metadata>
  <g
     inkscape:label="Layer 1"
     inkscape:groupmode="layer"
     id="layer1">
    <path
       style="opacity:1;fill:none;stroke:none;stroke-width:10;stroke-linecap:butt;stroke-linejoin:miter;stroke-miterlimit:4;stroke-dasharray:none;stroke-opacity:1"
       d="m -2895.0279,-289.62871 c 102.103,363.569278 204.2056,727.13737 217.6576,925.47826 13.452,198.34088 -61.7437,231.45459 -136.9413,264.56915"
       id="path3702"
       inkscape:original-d="m -2895.0279,-289.62871 c 102.1036,363.569099 204.2062,727.1372 306.3079,1090.70431 -75.1977,33.1161 -150.3934,66.2298 -225.5916,99.3431"
       inkscape:path-effect="#path-effect3704" />
    <path
       style="fill:none;stroke:none;stroke-width:1px;stroke-linecap:butt;stroke-linejoin:miter;stroke-opacity:1"
       d="m 2895.8835,-34.244615 c 124.8694,225.592775 249.7381,451.184395 310.4475,546.387775 60.7093,95.20338 57.26,60.02008 53.8105,24.83498"
       id="path3706"
       inkscape:path-effect="#path-effect3708"
       inkscape:original-d="m 2895.8835,-34.244615 c 124.8697,225.592595 249.7385,451.184195 374.6062,676.774795 -3.4485,-35.18372 -6.8978,-70.36703 -10.3482,-105.55204" />
    <path
       style="fill:none;stroke:none;stroke-width:1px;stroke-linecap:butt;stroke-linejoin:miter;stroke-opacity:1"
       d="m 3260.1415,536.97814 c -62.0891,-198.685 -124.1785,-397.37116 -166.6064,-517.756093 -42.4278,-120.384927 -65.1935,-162.466927 -95.5486,-183.163997 -30.355,-20.69707 -68.2978,-20.0072 -106.2423,-19.3173"
       id="path3710"
       inkscape:path-effect="#path-effect3712"
       inkscape:original-d="M 3260.1415,536.97814 C 3198.053,338.29296 3135.9636,139.60679 3073.8732,-59.080385 c -22.7656,-42.082685 -45.5313,-84.164675 -68.2984,-126.248515 -37.9433,0.6909 -75.8861,1.38077 -113.8306,2.06965"
       sodipodi:nodetypes="cccc" />
    <path
       style="fill:none;stroke:none;stroke-width:1px;stroke-linecap:butt;stroke-linejoin:miter;stroke-opacity:1"
       d="M 3127.684,1015.0668 C 3080.7723,826.73 3033.8603,638.39206 3073.53,647.70753 c 39.6697,9.31548 165.9157,216.27611 229.7295,319.068 63.8138,102.79187 65.1935,101.41217 66.5733,100.03247"
       id="path3714"
       inkscape:path-effect="#path-effect3716"
       inkscape:original-d="m 3127.684,1015.0668 c -46.911,-188.33698 -93.823,-376.67492 -140.736,-565.01386 126.252,206.96991 252.498,413.93054 378.7455,620.89426 1.3808,-1.3788 2.7605,-2.7585 4.1393,-4.1392" />
    <path
       style="opacity:0.680782;fill:#e2e2e2;fill-opacity:1;stroke:none;stroke-width:2.06965;stroke-linecap:square;stroke-linejoin:round;paint-order:stroke fill markers"
       d="m 2795.2638,386.92143 c -5.845,-150.76838 5.5096,-193.56005 5.5096,-193.56005 14.3279,72.90789 36.6564,155.65382 45.7048,190.53216 70.5026,271.76204 85.4019,324.82424 108.9658,467.22087 0,0 -29.1659,2.62393 -77.9489,-19.62344 -21.84,-9.96006 -33.0303,-20.38256 -44.2739,-33.73538 -8.5548,-10.15964 -19.3362,-18.7851 -25.4804,-40.74221 -31.703,-113.29484 -4.9299,-175.42022 -12.477,-370.09195 z"
       id="path3726"
       sodipodi:nodetypes="ssssssss" />
    <path
       style="opacity:0.680782;fill:#e2e2e2;fill-opacity:1;stroke:none;stroke-width:2.00443;stroke-linecap:square;stroke-linejoin:round;paint-order:stroke fill markers"
       d="m 3565.7256,707.92755 c -54.5506,-94.26525 -102.4695,-216.65631 -156.14,-360.44186 -28.8689,-77.34134 -37.1479,-100.72182 -86.4451,-244.12749 -2.9364,-8.541753 -5.5512,-17.215394 -8.7894,-25.55087 -0.9998,-2.573694 14.3177,-2.814594 37.5907,0.541323 39.6195,5.713051 93.3451,-12.442986 148.8237,26.156607 67.7537,47.14006 71.083,105.13992 70.7912,178.78274 -0.2483,62.69309 -1.7144,229.29393 -0.481,336.73705 0.5244,45.68211 -2.7385,92.41531 -5.3501,87.9025 z"
       id="path3728"
       sodipodi:nodetypes="sssssssss" />
    <path
       style="opacity:0.680782;fill:#e2e2e2;fill-opacity:1;stroke:#ffffff;stroke-width:1.91114;stroke-linecap:square;stroke-linejoin:round;paint-order:stroke fill markers"
       d="m 3094.7331,852.22482 c -6.28,-29.3359 -9.8173,-54.38194 -13.1862,-71.61629 -13.617,-69.66288 -17.5658,-111.05788 -6.9501,-115.13149 14.6076,-5.60548 61.3596,51.12096 130.8593,158.77811 6.4674,10.01814 13.1097,19.23508 18.3445,28.55249 1.3173,2.34473 -30.9691,0.44928 -63.3576,0.36078 -32.5273,-0.0888 -65.1614,1.61872 -65.7099,-0.9436 z"
       id="path3730"
       sodipodi:nodetypes="sssssss" />
    <path
       style="opacity:0.680782;fill:#e2e2e2;fill-opacity:1;stroke:#ffffff;stroke-width:2.00275;stroke-linecap:square;stroke-linejoin:round;paint-order:stroke fill markers"
       d="m 3235.809,546.60238 c -27.0598,-28.16106 -107.3222,-164.47164 -275.9414,-468.952209 -3.6321,-6.558642 10.6653,2.702384 66.1464,0.03812 37.2048,-1.786614 80.6813,-0.04796 80.6813,-0.04796 34.4645,82.001859 65.172,198.960679 114.6278,356.937339 25.3852,81.08819 28.1638,91.40033 28.1638,104.52517 0,8.26268 -0.9353,15.13943 -2.1621,15.89767 -1.1892,0.73492 -6.3712,-3.04423 -11.5158,-8.39813 z"
       id="path3732"
       sodipodi:nodetypes="sssssssss" />
    <path
       style="opacity:0.680782;fill:#00f1e7;fill-opacity:1;stroke:none;stroke-width:2.06965;stroke-linecap:square;stroke-linejoin:round;paint-order:stroke fill markers"
       d="m 2963.562,852.70323 c -10.614,-139.49869 -72.5743,-312.3593 -159.4745,-664.6491 -4.3989,-17.83306 40.5728,-83.49267 112.6037,-105.292786 19.2921,-5.838757 38.0508,-3.594786 38.0508,-3.594786 193.2556,350.172332 259.3128,456.545972 287.8528,486.100622 10.1405,10.50102 17.8526,11.81262 19.9652,3.39547 3.5696,-14.22231 -1.2362,-33.70499 -34.4046,-139.4748 -48.9369,-156.05412 -80.518,-270.51743 -112.7468,-350.961369 -1.7216,-4.297005 52.9217,-2.573098 104.0338,-0.606145 37.7118,1.451262 81.5058,-4.913174 83.0798,0.452803 39.1527,133.476881 74.4005,215.071091 97.6303,277.171471 57.7684,154.43272 106.1863,281.41532 164.6871,379.27139 5.2563,8.79238 -20.4182,50.9134 -52.9821,80.11819 -17.6325,15.81361 -40.1884,24.74947 -54.3309,29.60019 -24.8507,8.52352 -109.9317,9.22082 -167.6182,9.27392 -30.8213,0.0284 -53.8224,2.81874 -55.6388,-0.0367 -53.5842,-84.23677 -91.2523,-138.24516 -120.2382,-172.62898 -27.8334,-33.01677 -45.9422,-42.1951 -53.464,-27.09796 -8.6701,17.40167 6.0154,83.62732 25.9997,198.53552 0.6946,3.99362 0,1.6224 -56.9996,0.94329 -66.5318,-0.79263 -71.0011,-3.1058 -66.5318,-0.79263 z"
       id="path3734"
       sodipodi:nodetypes="cssssssssssssssssssssc" />
    <rect
       style="opacity:1;fill:none;fill-opacity:1;stroke:none;stroke-width:5.24355;stroke-linecap:square;stroke-linejoin:round;stroke-miterlimit:4;stroke-dasharray:none;paint-order:stroke fill markers"
       id="rect849"
       width="774.93665"
       height="774.37543"
       x="2794.9299"
       y="77.730125"
       ry="158.62535" />
    <path
       style="opacity:1;fill:none;stroke:#000000;stroke-width:10;stroke-linecap:butt;stroke-linejoin:miter;stroke-miterlimit:4;stroke-dasharray:none;stroke-opacity:1"
       d="m -2839.4453,492.21831 c 222.1193,-229.286 444.2387,-458.572102 492.8579,-575.589721 48.6192,-117.017619 -76.2578,-121.766699 -181.806,-79.514209 -105.5483,42.25249 -191.7609,131.503143 -218.0404,223.596333 -26.2795,92.093187 7.374,187.022227 99.5868,258.284587 92.2127,71.26236 242.9771,118.85507 339.9426,46.99417 96.9655,-71.86089 140.1288,-263.16905 183.2931,-454.481781"
       id="path1069"
       inkscape:path-effect="#path-effect1071"
       inkscape:original-d="m -2839.4453,492.21831 c 222.1203,-229.28503 444.2397,-458.571121 666.358,-687.85812 -124.8809,-4.7483 -249.7579,-9.4973 -374.6383,-14.2475 -86.215,89.2552 -172.4277,178.505799 -258.643,267.757199 33.6559,94.933801 67.3094,189.862851 100.9626,284.792751 150.7715,47.59563 301.5359,95.18835 452.3023,142.78101 43.166,-191.31481 86.3293,-382.62296 129.4924,-573.935961" />
    <path
       style="opacity:1;fill:none;stroke:#000000;stroke-width:10;stroke-linecap:butt;stroke-linejoin:miter;stroke-miterlimit:4;stroke-dasharray:none;stroke-opacity:1"
       d="m -2839.4453,492.21831 c -151.4412,177.69905 -302.8824,355.39806 -156.4409,461.85567 146.4415,106.45762 590.7467,141.67242 843.5103,-63.19855 252.7637,-204.87096 313.9757,-649.81129 326.6027,-944.508138 12.627,-294.696842 -23.3312,-439.135722 -60.8967,-504.634732 -37.5655,-65.49901 -76.7364,-52.05438 -116.4952,39.40093 -39.7587,91.45531 -80.1021,260.91341 -120.4462,430.374199"
       id="path1073"
       inkscape:path-effect="#path-effect1075"
       inkscape:original-d="m -2839.4453,492.21831 c -151.4401,177.69999 -302.8813,355.39899 -454.3235,533.09699 444.324,35.2172 888.6292,70.432 1332.9423,105.6465 61.2155,-444.95717 122.4274,-889.89751 183.6396,-1334.84781 -35.9587,-144.4437 -71.9168,-288.8826 -107.8767,-433.3254 -39.1714,13.4462 -78.3423,26.8908 -117.515,40.3347 -40.344,169.4658 -80.6874,338.9239 -121.0327,508.384399" />
    <path
       style="opacity:1;fill:none;stroke:#000000;stroke-width:10;stroke-linecap:butt;stroke-linejoin:miter;stroke-miterlimit:4;stroke-dasharray:none;stroke-opacity:1"
       d="m -2017.7649,-369.18821 c -289.9802,-135.00754 -579.9616,-270.01564 -842.6124,-215.7201 -262.6508,54.29553 -497.9603,297.88543 -567.0181,553.809664 -69.0578,255.924236 28.1365,524.165886 155.6379,662.893406 127.5014,138.72752 285.3009,147.93627 443.1024,157.14514"
       id="path1077"
       inkscape:path-effect="#path-effect1079"
       inkscape:original-d="m -2017.7649,-369.18821 c -289.9804,-135.0071 -579.9618,-270.0152 -869.9442,-405.0243 -235.318,243.6007 -470.6275,487.1906 -705.9428,730.784499 97.1993,268.253371 194.3936,536.495041 291.5889,804.741111 157.8068,9.2101 315.6063,18.4189 473.4079,27.6268" />
    <circle
       style="opacity:1;fill:#241c1c;fill-opacity:1;stroke:none;stroke-width:10;stroke-linecap:square;stroke-linejoin:round;stroke-miterlimit:4;stroke-dasharray:none;paint-order:stroke fill markers"
       id="path1087"
       cx="-2472.7002"
       cy="-101.93334"
       r="40.123661" />
    <path
       style="opacity:1;fill:none;stroke:#000000;stroke-width:10;stroke-linecap:butt;stroke-linejoin:miter;stroke-miterlimit:4;stroke-dasharray:none;stroke-opacity:1"
       d="m -2337.3206,-144.89791 c -49.1535,65.220368 -98.3069,130.44058 -149.7695,189.936608 -51.4627,59.496032 -105.2325,113.265812 -159.0034,167.036712"
       id="path1089"
       inkscape:path-effect="#path-effect1091"
       inkscape:original-d="m -2337.3206,-144.89791 c -49.1524,65.221199 -98.3058,130.441399 -147.4602,195.660699 -53.771,53.772901 -107.5408,107.542701 -161.3127,161.312621" />
    <path
       style="opacity:1;fill:#e9afaf;fill-opacity:1;stroke:none;stroke-width:10;stroke-linecap:square;stroke-linejoin:round;stroke-miterlimit:4;stroke-dasharray:none;paint-order:stroke fill markers"
       d="m -2737.1279,1032.7728 c -132.2961,-14.4304 -238.29,-53.3984 -284.3117,-104.5252 -35.3051,-39.2214 -41.3153,-88.4509 -18.2373,-149.382 3.4876,-9.208 5.4481,-11.9142 8.0305,-11.0851 15.9733,5.1282 82.1992,14.0871 131.4669,17.7845 66.8748,5.0188 72.0198,5.2755 72.0434,3.5945 0.013,-0.93 -21.6636,-3.1455 -48.1702,-4.9232 -26.5066,-1.7778 -61.5291,-4.8975 -77.8276,-6.9328 -29.3204,-3.6614 -77.2184,-11.8626 -78.8037,-13.493 -1.5367,-1.5804 16.5551,-35.91129 32.2558,-61.20853 22.7758,-36.69672 54.9216,-79.69569 104.5932,-139.90661 52.5535,-63.70424 52.4095,-63.54621 153.9997,-169.01988 l 80.6167,-83.69843 7.1248,5.59403 c 35.3514,27.75605 82.4764,53.63743 123.4548,67.80216 42.8837,14.82335 57.2721,20.17376 105.245,20.76368 40.1985,0.49434 41.7989,-2.94845 59.8664,-8.24781 58.1644,-17.06011 97.1821,-52.57358 133.8493,-121.82825 33.6659,-63.58609 61.8694,-153.15297 99.2576,-315.215771 30.7406,-133.248699 76.8576,-318.286899 83.5516,-335.239499 l 1.7936,-4.5422 13.5534,6.3942 c 7.4544,3.5168 14.5759,6.0062 15.8255,5.5319 1.2496,-0.4743 -4.6004,-4.1007 -13,-8.0587 -8.3997,-3.958 -15.2598,-8.0743 -15.2447,-9.1473 0.058,-4.1511 16.4761,-56.1447 28.0048,-88.688 26.4347,-74.62 54.6972,-117.7469 80.0387,-122.1343 33.8189,-5.855 71.9945,63.7202 92.6407,168.8379 36.6641,186.6708 23.0301,531.2506 -30.9011,780.97754 -39.7931,184.26106 -104.4047,338.52677 -184.631,440.82287 -61.2836,78.1422 -121.0583,125.9081 -210.7903,168.4419 -80.188,38.01 -165.5916,60.5902 -270.293,71.464 -41.5458,4.3147 -152.5519,3.8977 -195.0018,-0.7326 z"
       id="path1113"
       sodipodi:nodetypes="sssssssssssscssssssscssscssssssss" />
    <path
       style="opacity:1;fill:#ffccaa;fill-opacity:1;stroke:none;stroke-width:10;stroke-linecap:square;stroke-linejoin:round;stroke-miterlimit:4;stroke-dasharray:none;paint-order:stroke fill markers"
       d="m -3069.6952,754.6582 c -70.6257,-21.68868 -128.8129,-54.6432 -176.1489,-99.76252 -94.4982,-90.07293 -165.0556,-231.19129 -191.7747,-383.55928 -8.4743,-48.32565 -10.7124,-79.46025 -9.841,-136.90401 0.8974,-59.161101 3.909,-86.843901 14.741,-135.4992009 42.3083,-190.0410991 177.0332,-377.2701991 351.785,-488.8807991 116.3686,-74.3224 224.4351,-106.4827 352.7741,-104.9847 161.748,1.888 332.1011,53.1012 623.0115,187.2957 l 53.84,24.836 -15.064,56.15 c -15.9807,59.5669 -50.2926,200.0414 -69.4646,284.391099 -26.0816,114.7499 -51.747,204.522501 -74.4635,260.459731 -41.4106,101.96941 -88.144,154.487 -154.7361,173.88775 -78.2722,22.80359 -190.6767,-6.69717 -277.9887,-72.95863 l -15.3313,-11.63499 6.0511,-7.02638 c 3.3281,-3.86452 24.8321,-27.13185 47.7868,-51.70517 153.1526,-163.952311 240.4444,-277.008611 262.4703,-339.939711 15.0192,-42.912099 7.9239,-71.773999 -21.2894,-86.599699 -49.948,-25.3485 -151.4421,-4.1971 -233.5254,48.6669 -26.4342,17.0243 -43.6453,31.217599 -70.0015,57.727199 -85.5989,86.0971 -111.679,190.760201 -70.3415,282.289451 12.3147,27.26718 29.7089,52.55046 52.2739,75.98249 l 20.4074,21.19153 -28.4893,29.59948 c -15.6692,16.27969 -55.2317,57.36638 -87.9167,91.30375 -61.0776,63.41774 -74.9328,78.83023 -119.5218,132.95565 -68.5634,83.22732 -105.1147,135.47293 -127.43,182.14506 -6.7339,14.084 -9.7101,18.258 -12.9775,18.2007 -2.3319,-0.041 -15.3077,-3.4732 -28.8352,-7.6274 z"
       id="path1115" />
    <path
       style="opacity:1;fill:#ffffff;fill-opacity:1;stroke:none;stroke-width:10;stroke-linecap:square;stroke-linejoin:round;stroke-miterlimit:4;stroke-dasharray:none;paint-order:stroke fill markers"
       d="m -2679.64,285.9012 c -31.563,-32.38211 -53.8908,-69.66517 -65.1122,-108.7248 -8.1442,-28.34851 -9.5362,-70.82971 -3.2321,-98.637611 6.2402,-27.5259 15.0371,-50.0349 29.2335,-74.8002999 48.0414,-83.8080001 133.8423,-149.7751991 229.9913,-176.8263991 50.3755,-14.173 94.8977,-14.9866 121.2812,-2.2162 15.018,7.2691 29.654,26.0222 25.1511,32.2261 -1.0334,1.4236 -20.3467,26.8199 -42.9186,56.436099 -77.5492,101.7515 -129.4301,161.7873 -212.7956,246.244101 -44.0723,44.64917 -53.1256,55.19029 -47.2957,55.0681 3.2122,-0.0673 136.1036,-139.079001 161.3619,-168.793401 32.0838,-37.7439999 79.203,-96.8838 115.5458,-145.0228 28.0504,-37.155099 28.887,-38.031099 29.66,-31.060499 3.9169,35.321499 -41.6634,113.140499 -125.1361,213.644399 -53.6114,64.549901 -193.3489,218.429171 -198.4523,218.536131 -0.8709,0.0182 -8.6479,-7.21456 -17.2822,-16.07292 z m 230.266,-354.001811 c 26.3782,-18.2625 22.5269,-58.778599 -6.7831,-71.358199 -14.486,-6.2173 -30.1249,-3.7461 -41.505,5.2537 -5.2152,4.1243 -9.536,9.6197 -12.4415,16.2784 -9.4805,21.726799 1.5955,47.059599 23.9787,54.843599 11.1701,3.8845 27.018,1.7208 36.7509,-5.0175 z"
       id="path1125"
       sodipodi:nodetypes="ssssssssssssssssssssss" />
    <rect
       style="opacity:1;fill:none;fill-opacity:1;stroke:none;stroke-width:5;stroke-linecap:square;stroke-linejoin:round;stroke-miterlimit:4;stroke-dasharray:none;paint-order:stroke fill markers"
       id="rect1155"
       width="757.4873"
       height="757.4873"
       x="2390.3257"
       y="1673.8827"
       ry="215.62267" />
    <path
       style="opacity:1;fill:#c83737;fill-opacity:0;stroke:none;stroke-width:7.49602;stroke-linecap:square;stroke-linejoin:round;stroke-miterlimit:4;stroke-dasharray:none;paint-order:stroke fill markers"
       d="m 2706.5694,2428.2178 c -64.3327,-0.1289 -121.0305,-0.8651 -125.9951,-1.6358 -4.9647,-0.7708 -9.4591,-1.3963 -9.9877,-1.39 -0.5287,0.01 1.4497,-6.6183 4.3963,-14.7213 47.0701,-129.4411 78.1798,-291.4656 87.9534,-458.0765 0.7024,-11.9735 1.5502,-22.0692 1.8839,-22.4349 1.9669,-2.1549 102.2241,6.9479 139.5385,12.6694 79.3999,12.1744 113.3714,34.6202 126.8734,83.8283 20.075,73.1636 -5.2452,229.6293 -63.5773,392.8752 l -3.1042,8.6873 -20.5064,0.2163 c -11.2784,0.119 -73.1421,0.1109 -137.4748,-0.018 z"
       id="path1289" />
    <path
       style="opacity:1;fill:#c83737;fill-opacity:0;stroke:none;stroke-width:7.49602;stroke-linecap:square;stroke-linejoin:round;stroke-miterlimit:4;stroke-dasharray:none;paint-order:stroke fill markers"
       d="m 2883.1353,2428.0162 c -5.9828,-0.1593 -10.8822,-0.5037 -10.8877,-0.7655 -0.01,-0.2617 4.3591,-13.3133 9.6991,-29.0036 55.5354,-163.1767 76.2219,-310.0547 53.5671,-380.3378 -5.5599,-17.2489 -13.495,-30.015 -26.3728,-42.4293 -25.2828,-24.3727 -65.1639,-36.3417 -150.7779,-45.2512 -16.1177,-1.6773 -41.8058,-3.8775 -57.0848,-4.8894 -15.279,-1.0119 -29.8099,-2.0926 -32.2909,-2.4017 l -4.511,-0.5619 0.8174,-19.8882 c 0.4495,-10.9385 0.2792,-51.2747 -0.3785,-89.6359 l -1.1958,-69.7476 21.7738,1.4584 c 93.296,6.2489 177.5621,23.1206 238.4164,47.7355 87.6912,35.4703 142.822,95.5838 165.9764,180.9776 8.3663,30.8549 9.9476,44.0736 10.9344,91.4036 0.9795,46.9486 -0.01,61.8808 -6.9522,105.113 -9.7704,60.8339 -28.9988,132.7389 -55.605,207.9365 l -9.6297,27.2166 -8.2428,3.855 c -16.676,7.799 -38.6212,14.2485 -58.1603,17.0929 -11.6743,1.6995 -53.1652,2.8131 -79.0952,2.123 z"
       id="path1291" />
    <path
       style="opacity:1;fill:#c83737;fill-opacity:0;stroke:none;stroke-width:7.49602;stroke-linecap:square;stroke-linejoin:round;stroke-miterlimit:4;stroke-dasharray:none;paint-order:stroke fill markers"
       d="m 2706.5694,2428.2178 c -64.3327,-0.1289 -121.0305,-0.8651 -125.9951,-1.6358 -4.9647,-0.7708 -9.4591,-1.3963 -9.9877,-1.39 -0.5287,0.01 1.4497,-6.6183 4.3963,-14.7213 47.0701,-129.4411 78.1798,-291.4656 87.9534,-458.0765 0.7024,-11.9735 1.5502,-22.0692 1.8839,-22.4349 1.9669,-2.1549 102.2241,6.9479 139.5385,12.6694 79.3999,12.1744 113.3714,34.6202 126.8734,83.8283 20.075,73.1636 -5.2452,229.6293 -63.5773,392.8752 l -3.1042,8.6873 -20.5064,0.2163 c -11.2784,0.119 -73.1421,0.1109 -137.4748,-0.018 z"
       id="path1293" />
    <path
       style="opacity:1;fill:#c83737;fill-opacity:0;stroke:none;stroke-width:7.49602;stroke-linecap:square;stroke-linejoin:round;stroke-miterlimit:4;stroke-dasharray:none;paint-order:stroke fill markers"
       d="m 2883.1353,2428.0162 c -5.9828,-0.1593 -10.8822,-0.5037 -10.8877,-0.7655 -0.01,-0.2617 4.3591,-13.3133 9.6991,-29.0036 55.5354,-163.1767 76.2219,-310.0547 53.5671,-380.3378 -5.5599,-17.2489 -13.495,-30.015 -26.3728,-42.4293 -25.2828,-24.3727 -65.1639,-36.3417 -150.7779,-45.2512 -16.1177,-1.6773 -41.8058,-3.8775 -57.0848,-4.8894 -15.279,-1.0119 -29.8099,-2.0926 -32.2909,-2.4017 l -4.511,-0.5619 0.8174,-19.8882 c 0.4495,-10.9385 0.2792,-51.2747 -0.3785,-89.6359 l -1.1958,-69.7476 21.7738,1.4584 c 93.296,6.2489 177.5621,23.1206 238.4164,47.7355 87.6912,35.4703 142.822,95.5838 165.9764,180.9776 8.3663,30.8549 9.9476,44.0736 10.9344,91.4036 0.9795,46.9486 -0.01,61.8808 -6.9522,105.113 -9.7704,60.8339 -28.9988,132.7389 -55.605,207.9365 l -9.6297,27.2166 -8.2428,3.855 c -16.676,7.799 -38.6212,14.2485 -58.1603,17.0929 -11.6743,1.6995 -53.1652,2.8131 -79.0952,2.123 z"
       id="path1295" />
    <path
       style="opacity:1;fill:#000000;fill-opacity:0.761765;fill-rule:evenodd;stroke:none;stroke-width:7.49602;stroke-linecap:square;stroke-linejoin:round;stroke-miterlimit:4;stroke-dasharray:none;paint-order:stroke fill markers"
       d="m 2706.5694,2428.2178 c -64.3327,-0.1289 -121.0305,-0.8651 -125.9951,-1.6358 -4.9647,-0.7708 -9.4591,-1.3963 -9.9877,-1.39 -0.5287,0.01 1.4497,-6.6183 4.3963,-14.7213 47.0701,-129.4411 78.1798,-291.4656 87.9534,-458.0765 0.7024,-11.9735 1.5502,-22.0692 1.8839,-22.4349 1.9669,-2.1549 102.2241,6.9479 139.5385,12.6694 79.3999,12.1744 113.3714,34.6202 126.8734,83.8283 20.075,73.1636 -5.2452,229.6293 -63.5773,392.8752 l -3.1042,8.6873 -20.5064,0.2163 c -11.2784,0.119 -73.1421,0.1109 -137.4748,-0.018 z"
       id="path1297" />
    <path
       style="opacity:1;fill:#000000;fill-opacity:0.761765;fill-rule:evenodd;stroke:none;stroke-width:7.49602;stroke-linecap:square;stroke-linejoin:round;stroke-miterlimit:4;stroke-dasharray:none;paint-order:stroke fill markers"
       d="m 2430.1089,2334.6378 c -9.3767,-13.775 -21.4563,-38.6312 -26.2358,-53.9854 -7.3901,-23.7409 -9.0594,-37.113 -9.8079,-78.5647 -1.1141,-61.7055 -0.6616,-271.0466 0.5888,-272.3499 0.6305,-0.6572 26.6101,-2.0163 57.7326,-3.0203 l 56.5863,-1.8255 -0.873,15.5749 c -7.0489,125.7675 -31.2902,266.2227 -66.9553,387.9415 l -4.5969,15.6883 z"
       id="path3255" />
    <path
       style="opacity:1;fill:#000000;fill-opacity:0.761765;fill-rule:evenodd;stroke:none;stroke-width:14.7536;stroke-linecap:square;stroke-linejoin:round;stroke-miterlimit:4;stroke-dasharray:none;paint-order:stroke fill markers"
       d="m 2766.7052,1578.6925 c -0.016,-0.7413 8.7809,-8.7711 19.5478,-17.8439 24.3655,-20.5321 62.2909,-45.2351 65.0033,-42.3403 1.1165,1.1915 3.016,14.2416 4.2212,29.0001 l 2.1911,26.8337 -24.0799,2.3832 c -28.052,2.7764 -66.8426,3.9173 -66.8835,1.9672 z"
       id="path3257" />
    <path
       style="opacity:1;fill:#000000;fill-opacity:0.761765;fill-rule:evenodd;stroke:none;stroke-width:7.49602;stroke-linecap:square;stroke-linejoin:round;stroke-miterlimit:4;stroke-dasharray:none;paint-order:stroke fill markers"
       d="m 3039.0361,2395.8809 c 5.0576,-13.4208 20.3868,-59.4525 27.281,-81.9215 59.4874,-193.8754 56.1859,-335.5205 -10.0102,-429.4774 -56.5384,-80.2488 -155.922,-123.8742 -324.1111,-142.2717 -12.8129,-1.4015 -33.2842,-3.2655 -45.4919,-4.1422 -12.2077,-0.8766 -22.447,-1.8499 -22.7539,-2.1627 -0.802,-0.8175 -4.8609,-57.3374 -4.1723,-58.0991 1.0134,-1.121 264.5073,-1.095 284.3822,0.028 51.5944,2.9155 96.9765,22.6754 134.3615,58.5025 38.2445,36.6508 60.9291,84.0355 65.1095,136.004 1.1606,14.4292 1.2358,355.9877 0.08,363.5202 -0.3175,2.0685 -1.2668,8.4989 -2.1098,14.2898 -3.7186,25.5468 -15.206,55.4371 -30.7563,80.0286 -12.488,19.7487 -37.2151,45.712 -55.9151,58.7105 -14.4191,10.0228 -17.5562,11.4027 -15.8936,6.9909 z"
       id="path3259" />
    <path
       style="opacity:1;fill:#cccccc;fill-opacity:0.682353;fill-rule:evenodd;stroke:none;stroke-width:29.9841;stroke-linecap:square;stroke-linejoin:round;stroke-miterlimit:4;stroke-dasharray:none;paint-order:stroke fill markers"
       d="m 2878.696,2418.4656 c 16.0676,-44.8259 44.9746,-153.2694 53.8468,-202.0042 29.4421,-161.724 13.5961,-235.7703 -56.7393,-265.1366 -24.0308,-10.0333 -98.8028,-22.4873 -172.5321,-28.7369 l -34.5506,-2.9286 -1.813,-86.5034 c -2.1112,-100.7347 -11.7325,-91.7714 85.0671,-79.2499 120.4173,15.5764 209.2093,48.9021 262.225,98.419 61.9275,57.8406 85.0028,124.8758 82.1394,238.62 -2.2105,87.8115 -26.6237,198.7246 -66.7636,303.3178 -5.8262,15.1815 -57.3401,29.74 -109.068,30.8242 -33.1466,0.6947 -43.8278,-0.9968 -41.8117,-6.6214 z"
       id="path3285" />
    <path
       style="opacity:1;fill:#333333;fill-opacity:0.682353;fill-rule:evenodd;stroke:none;stroke-width:10.601;stroke-linecap:square;stroke-linejoin:round;stroke-miterlimit:4;stroke-dasharray:none;paint-order:stroke fill markers"
       d="m 2610.1561,1920.2884 c -13.4243,-0.5299 -39.7227,-0.768 -58.441,-0.5291 l -34.0332,0.4342 -1.7763,-90.0843 -1.7762,-90.0844 7.4196,-0.1274 c 20.1509,-0.346 116.9171,1.8092 126.03,2.807 l 10.4191,1.1407 0.4567,84.0434 c 0.2512,46.2239 -0.1214,86.2028 -0.828,88.8419 -1.4414,5.3833 -1.3689,5.3779 -47.4707,3.558 z"
       id="path3287" />
    <path
       style="opacity:1;fill:#cccccc;fill-opacity:0.682353;fill-rule:evenodd;stroke:none;stroke-width:10.601;stroke-linecap:square;stroke-linejoin:round;stroke-miterlimit:4;stroke-dasharray:none;paint-order:stroke fill markers"
       d="m 2543.1153,2417.7802 c -22.3999,-6.9833 -41.3705,-16.4394 -61.4116,-30.6117 -15.1809,-10.7352 -38.4787,-33.4604 -38.5659,-37.6179 -0.028,-1.3511 3.8911,-16.409 8.7097,-33.462 24.1082,-85.3184 42.0808,-174.98 52.766,-263.2378 5.7149,-47.2045 10.7172,-103.7296 10.4228,-117.7765 l -0.1773,-8.4596 20.6632,-0.4331 c 25.0071,-0.5241 109.9264,1.6738 116.9163,3.0261 4.9026,0.9484 4.9834,1.322 3.9787,18.3913 -9.5284,161.8845 -36.0478,305.7973 -80.8904,438.9693 -6.6646,19.7923 -12.3754,36.2549 -12.6906,36.5836 -0.3152,0.3287 -9.1896,-2.0886 -19.7209,-5.3717 z"
       id="path3289" />
    <path
       style="opacity:1;fill:#cccccc;fill-opacity:0.682353;fill-rule:evenodd;stroke:none;stroke-width:2.65024;stroke-linecap:square;stroke-linejoin:round;stroke-miterlimit:4;stroke-dasharray:none;paint-order:stroke fill markers"
       d="m 2656.3674,1736.6409 c -0.8194,-0.1664 -19.8873,-0.974 -36.8792,-1.5619 -25.7406,-0.8907 -65.2426,-1.2886 -85.9049,-0.8655 -7.5781,0.1552 -15.3385,0.1678 -17.2453,0.028 l -3.4669,-0.2543 -1.2768,-15.5762 c -0.7022,-8.5669 -1.4191,-16.3507 -1.5931,-17.2972 l -0.3165,-1.721 5.0234,-2.3386 c 23.9967,-11.1715 47.4354,-17.3986 74.0772,-19.6804 6.8441,-0.5861 16.1844,-0.7757 36.5659,-0.7422 15.0555,0.025 27.483,0.1482 27.6165,0.2741 0.3355,0.3164 1.8052,19.7358 2.9059,38.3956 0.5041,8.5448 1.0386,16.9052 1.188,18.5787 0.1493,1.6735 0.2339,3.0159 0.188,2.983 -0.046,-0.033 -0.443,-0.1327 -0.8822,-0.2219 z"
       id="path3291" />
    <path
       style="opacity:1;fill:#cccccc;fill-opacity:0.682353;fill-rule:evenodd;stroke:none;stroke-width:2.65024;stroke-linecap:square;stroke-linejoin:round;stroke-miterlimit:4;stroke-dasharray:none;paint-order:stroke fill markers"
       d="m 2393.0265,1920.3911 c -0.2409,-15.3051 0.3185,-42.9697 1.0202,-50.4458 4.3347,-46.1867 23.2421,-89.4519 53.7807,-123.0651 l 4.9102,-5.4046 27.547,-0.7438 27.5472,-0.7439 0.5405,8.3728 c 2.1178,32.8054 3.3017,73.5886 3.0732,105.87 -0.1847,26.0869 -1.281,64.6391 -1.8536,65.1777 -0.1219,0.1147 -26.3913,0.8729 -58.3764,1.685 l -58.1547,1.4763 z"
       id="path3293" />
    <rect
       style="opacity:1;fill:#000000;fill-opacity:0.761765;fill-rule:evenodd;stroke:none;stroke-width:5;stroke-linecap:square;stroke-linejoin:round;stroke-miterlimit:4;stroke-dasharray:none;paint-order:stroke fill markers"
       id="rect3297"
       width="277.65076"
       height="131.63774"
       x="2227.3372"
       y="1600.9084"
       ry="0" />
    <path
       style="fill:none;stroke:#000000;stroke-width:5;stroke-linecap:butt;stroke-linejoin:miter;stroke-miterlimit:4;stroke-dasharray:none;stroke-opacity:1"
       d="M 4190.5573,677.23473 C 4091.5246,441.05758 3992.4944,204.88659 4002.3456,83.289686 c 9.8513,-121.596906 128.5833,-128.607068 237.7652,-110.179038 109.1819,18.4280306 208.808,62.292362 235.1666,126.925542 26.3585,64.63318 -20.5506,150.03187 -58.7539,248.6577 -38.2033,98.62584 -67.6978,210.47068 -97.1936,322.32006"
       id="path3299"
       inkscape:path-effect="#path-effect3301"
       inkscape:original-d="m 4190.5573,677.23473 c 0,0 -198.0624,-472.34834 -297.0982,-708.531448 118.7377,-7.01144 237.4697,-14.0216 356.203,-21.0309 99.6311,43.8650987 199.2572,87.729448 298.8844,131.595668 -46.9094,85.40196 -93.8185,170.80066 -140.7302,256.20123 -29.4949,111.85075 -58.9895,223.69559 -88.4864,335.54467"
       sodipodi:nodetypes="cccccc" />
    <circle
       style="opacity:1;fill:#000000;fill-opacity:0.761765;fill-rule:evenodd;stroke:none;stroke-width:5.99895;stroke-linecap:square;stroke-linejoin:round;stroke-miterlimit:4;stroke-dasharray:none;paint-order:stroke fill markers"
       id="path3305"
       cx="4114.1978"
       cy="132.8992"
       r="62.989441" />
    <circle
       style="opacity:1;fill:#000000;fill-opacity:0.761765;fill-rule:evenodd;stroke:none;stroke-width:5;stroke-linecap:square;stroke-linejoin:round;stroke-miterlimit:4;stroke-dasharray:none;paint-order:stroke fill markers"
       id="path3309"
       cx="4342.5371"
       cy="175.65884"
       r="85.502167" />
    <path
       style="fill:none;stroke:#000000;stroke-width:7;stroke-linecap:butt;stroke-linejoin:miter;stroke-miterlimit:4;stroke-dasharray:none;stroke-opacity:1"
       d="m 4195.029,529.45346 c 38.2304,-0.76798 76.4597,-1.53594 114.6881,-2.30388"
       id="path3311"
       inkscape:path-effect="#path-effect3313"
       inkscape:original-d="m 4195.029,529.45346 c 38.2304,-0.76696 76.4597,-1.53492 114.6881,-2.30388" />
    <circle
       style="opacity:1;fill:none;fill-opacity:0.761765;fill-rule:evenodd;stroke:none;stroke-width:4.92954;stroke-linecap:square;stroke-linejoin:round;stroke-miterlimit:4;stroke-dasharray:none;paint-order:stroke fill markers"
       id="path3317"
       r="390.69727"
       cy="288.23752"
       cx="4241.9307" />
    <path
       style="fill:none;stroke:#000000;stroke-width:8;stroke-linecap:butt;stroke-linejoin:miter;stroke-miterlimit:4;stroke-dasharray:none;stroke-opacity:1"
       d="m 4236.6909,270.96153 c 0.7084,2.82776 1.4165,5.65435 -4.4013,32.86661 -5.8179,27.21226 -18.1606,78.80856 -11.7848,108.66485 6.3759,29.85628 31.4683,37.97148 56.56,46.08646"
       id="path3319"
       inkscape:path-effect="#path-effect3321"
       inkscape:original-d="m 4236.6909,270.96153 c 0.7091,2.82758 1.4172,5.65417 2.1243,8.47976 -12.3423,51.59939 -24.685,103.19571 -37.0291,154.79206 25.0944,8.11653 50.1868,16.23174 75.2787,24.3461" />
    <path
       style="opacity:1;fill:#c8beb7;fill-opacity:0.761765;fill-rule:evenodd;stroke:#000000;stroke-width:14.992;stroke-linecap:square;stroke-linejoin:round;stroke-miterlimit:4;stroke-dasharray:none;paint-order:stroke fill markers"
       d="m 3862.7666,362.53663 c -8.9374,-42.73986 -8.9676,-105.57488 -0.071,-148.32331 15.7227,-75.5497 49.3964,-139.32285 102.6753,-194.45223 55.5556,-57.485229 122.4579,-94.099983 203.3264,-111.277985 35.182,-7.473325 111.6052,-7.501833 146.227,-0.05455 185.4765,39.896719 312.5988,194.213495 312.6879,379.579095 0.083,173.29187 -225.8309,119.93677 -209.6644,77.65266 45.1345,-118.05163 59.7233,-170.65529 59.7019,-215.27028 -0.044,-90.83831 -83.7489,-154.5614193 -238.4608,-181.535286 -41.6495,-7.261549 -100.2379,-8.79398 -129.8177,-3.395494 -66.3877,12.116122 -101.4465,47.43339 -109.3305,110.13645 -2.7543,21.9058 -2.4507,33.29844 1.7433,65.41773 11.7741,90.16911 -108.4637,367.63319 -139.0172,221.5232 z"
       id="path3323"
       sodipodi:nodetypes="sssssssssssss" />
    <path
       style="fill:none;stroke:none;stroke-width:1px;stroke-linecap:butt;stroke-linejoin:miter;stroke-opacity:1"
       d="m 4216.7189,-729.25214 c 268.4653,-193.7736 536.9303,-387.54706 693.4218,-492.21866 156.4915,-104.6717 201.0073,-120.2409 323.6846,-1.2123 122.6773,119.0286 323.5069,372.64386 524.3397,626.26303"
       id="path3333"
       inkscape:path-effect="#path-effect3335"
       inkscape:original-d="m 4216.7189,-729.25214 c 268.4661,-193.77246 536.9311,-387.54596 805.3952,-581.32036 44.5185,-15.5688 89.0343,-31.138 133.5499,-46.7085 200.8387,253.6264 401.6684,507.24163 602.501,760.86093" />
    <path
       style="fill:none;stroke:none;stroke-width:1px;stroke-linecap:butt;stroke-linejoin:miter;stroke-opacity:1"
       d="m -459.68525,827.09706 c 20.49356,-4.95714 40.98641,-9.9141 197.8268,-128.01592 C -105.01805,580.97932 188.15877,349.74182 308.59815,228.12616 429.03753,106.5105 376.73466,94.52142 564.44831,244.6152 752.16195,394.70898 1179.8761,706.87283 1607.5977,1019.0421"
       id="path3337"
       inkscape:path-effect="#path-effect3339"
       inkscape:original-d="m -459.68525,827.09706 c 20.49384,-4.95596 40.98669,-9.91293 61.47853,-14.87089 C -105.01718,580.98042 188.15964,349.74292 481.34132,118.4998 429.03736,106.51123 376.73449,94.522151 324.42957,82.531827 752.16183,394.70915 1179.876,706.87299 1607.5977,1019.0421" />
    <path
       style="fill:none;stroke:none;stroke-width:1px;stroke-linecap:butt;stroke-linejoin:miter;stroke-opacity:1"
       d="m 4338.5995,-1754.1951 c -192.7757,254.4583 -71.6182,716.1551 174.8699,954.90962 246.488,238.75454 618.2909,254.56719 832.6107,116.03511 214.3197,-138.53208 271.1477,-431.39813 278.0178,-693.76443 6.87,-262.3663 -36.2177,-494.218 -311.1209,-586.537 -274.9033,-92.3191 -781.6017,-45.1016 -974.3775,209.3567 z"
       id="path3341"
       inkscape:path-effect="#path-effect3343"
       inkscape:original-d="m 4024.6659,-1961.4349 c 121.1585,461.6979 242.3161,923.3947 363.4727,1385.09063 371.8188,15.8143 743.6217,31.6269 1115.4311,47.4389 56.8313,-292.87685 113.6593,-585.74293 170.4874,-878.61593 -43.0884,-231.8599 -86.1761,-463.7116 -129.2656,-695.5689 -506.7177,47.2204 -1013.4161,94.4379 -1520.1256,141.6553 z"
       sodipodi:nodetypes="cccccc" />
    <path
       style="fill:none;stroke:none;stroke-width:1px;stroke-linecap:butt;stroke-linejoin:miter;stroke-opacity:1"
       d="m 5325.4853,-929.08296 c 72.484,89.72122 144.9671,179.44135 217.4493,269.16039"
       id="path3347"
       inkscape:path-effect="#path-effect3349"
       inkscape:original-d="m 5325.4853,-929.08296 c 72.4841,89.72113 144.9672,179.44126 217.4493,269.16039" />
    <path
       style="opacity:1;fill:#666666;fill-opacity:0.761765;fill-rule:evenodd;stroke:none;stroke-width:21.202;stroke-linecap:square;stroke-linejoin:round;stroke-miterlimit:4;stroke-dasharray:none;paint-order:stroke fill markers"
       d="m 4306.5805,-1124.7196 c -43.9672,-116.0851 -66.3699,-240.627 -61.11,-339.7252 l 1.5183,-28.6041 18.3302,-10.3434 c 105.6897,-59.6382 182.174,-80.9861 248.5955,-69.3865 57.4494,10.0328 109.1288,41.3203 189.7869,114.9 l 24.4493,22.3037 -4.9093,5.3265 c -9.341,10.1348 -87.7929,78.3265 -144.7844,125.8488 -82.0939,68.4541 -256.3109,207.7653 -259.8249,207.767 -0.7774,4e-4 -6.2007,-12.6387 -12.0516,-28.0868 z"
       id="path3361" />
    <path
       style="opacity:1;fill:#666666;fill-opacity:0.761765;fill-rule:evenodd;stroke:none;stroke-width:21.202;stroke-linecap:square;stroke-linejoin:round;stroke-miterlimit:4;stroke-dasharray:none;paint-order:stroke fill markers"
       d="m 4417.6726,-915.12063 c -24.8964,-35.51916 -52.6833,-82.60242 -73.9706,-125.33897 -17.817,-35.7694 -24.422,-51.1234 -22.6239,-52.5913 0.515,-0.4204 19.0572,-14.963 41.2049,-32.3167 118.7009,-93.0077 238.1177,-191.0118 312.4564,-256.4298 22.6475,-19.9297 44.7961,-39.3917 49.2193,-43.2489 l 8.0422,-7.013 43.0077,40.1343 c 46.0888,43.0096 72.9582,67.0668 130.0229,116.4141 l 36.1087,31.2256 -55.1576,37.228 c -74.6586,50.3898 -172.4733,119.0296 -323.7238,227.16755 l -126.5607,90.48577 z"
       id="path3363" />
    <path
       style="opacity:1;fill:#cccccc;fill-opacity:0.761765;fill-rule:evenodd;stroke:none;stroke-width:21.202;stroke-linecap:square;stroke-linejoin:round;stroke-miterlimit:4;stroke-dasharray:none;paint-order:stroke fill markers"
       d="m 4982.6936,-597.83087 c -79.4151,-6.8286 -128.1497,-16.0947 -189.1143,-35.9569 -109.0492,-35.5282 -206.1344,-94.78356 -285.9635,-174.5362 -30.0371,-30.00831 -66.7682,-72.61234 -66.7705,-77.44643 -0,-4.69093 331.6498,-240.6537 452.9128,-322.2371 l 50.1433,-33.7354 27.2033,22.9557 c 65.0507,54.8938 169.8219,141.5236 257.3356,212.7773 l 94.3856,76.84882 62.0416,76.59806 c 34.1228,42.12892 62.0467,77.19551 62.0531,77.9257 0.024,2.78711 -46.3261,48.08034 -62.5065,61.08084 -73.5217,59.07271 -165.745,96.26891 -274.5112,110.71801 -29.2034,3.8796 -105.4306,6.8803 -127.2093,5.0076 z"
       id="path3365" />
    <path
       style="opacity:1;fill:#cccccc;fill-opacity:0.761765;fill-rule:evenodd;stroke:none;stroke-width:21.202;stroke-linecap:square;stroke-linejoin:round;stroke-miterlimit:4;stroke-dasharray:none;paint-order:stroke fill markers"
       d="m 5436.0823,-795.2768 c -7.6038,-9.19581 -35.3725,-43.43225 -61.7082,-76.08098 l -47.8832,-59.36133 -67.5854,-55.02447 c -104.5479,-85.11742 -183.0764,-149.88662 -246.5059,-203.31462 -31.912,-26.8801 -59.3531,-49.9315 -60.9803,-51.2254 -1.6272,-1.2939 -2.9587,-2.8441 -2.959,-3.4449 -10e-4,-2.3114 47.0859,-29.6748 70.1356,-40.7575 25.7011,-12.3575 53.3718,-20.2687 70.8281,-20.2499 15.2163,0.016 35.7376,5.3432 53.5509,13.9005 58.1137,27.9172 160.9275,134.9616 341.7174,355.77828 20.0147,24.44599 36.3909,45.483 36.3915,46.74888 0,6.75071 -48.0967,82.55965 -65.075,102.56275 l -6.1013,7.18834 z"
       id="path3367" />
    <path
       style="opacity:1;fill:#333333;fill-opacity:0.761765;fill-rule:evenodd;stroke:none;stroke-width:21.202;stroke-linecap:square;stroke-linejoin:round;stroke-miterlimit:4;stroke-dasharray:none;paint-order:stroke fill markers"
       d="m 5484.8731,-940.68652 c -178.4603,-217.81778 -278.3507,-321.88028 -337.478,-351.57328 -52.2553,-26.242 -96.8079,-18.7551 -176.5259,29.6646 -13.87,8.4245 -26.2564,14.9134 -27.5252,14.4196 -5.7473,-2.2363 -109.7402,-94.1149 -171.4866,-151.5098 l -37.672,-35.0171 25.9822,-24.7634 c 14.2902,-13.6198 40.7554,-41.1936 58.8115,-61.2749 35.8806,-39.9052 46.9354,-48.9584 59.7898,-48.9646 16.8102,-0.01 29.5439,8.2721 96.0673,62.4684 121.1773,98.7225 253.5542,199.4642 532.8939,405.5438 39.9534,29.4751 72.6426,53.906 72.6428,54.2908 0,3.6083 -21.0028,68.99197 -28.2668,87.99 -8.3938,21.9528 -26.1444,63.65154 -27.8192,65.35126 -0.3643,0.36972 -18.1005,-20.6117 -39.4138,-46.62538 z"
       id="path3369" />
    <path
       style="opacity:1;fill:#87cdde;fill-opacity:0.761765;fill-rule:evenodd;stroke:none;stroke-width:21.202;stroke-linecap:square;stroke-linejoin:round;stroke-miterlimit:4;stroke-dasharray:none;paint-order:stroke fill markers"
       d="m 5542.1934,-1080.618 c -20.4141,-15.163 -75.2938,-55.8225 -121.9547,-90.3543 -222.9335,-164.984 -341.9255,-256.1991 -454.9494,-348.7485 -58.5643,-47.9552 -76.7181,-57.8744 -95.7803,-52.3344 -7.5874,2.2051 -13.6351,7.3502 -34.6227,29.455 -37.3433,39.3311 -101.3861,104.4167 -102.7446,104.4174 -0.6466,3e-4 -10.7025,-8.6881 -22.3465,-19.3076 -54.9718,-50.135 -91.0627,-77.1066 -127.217,-95.0723 -57.7077,-28.676 -108.2764,-33.6571 -173.4338,-17.0836 -37.812,9.6179 -86.6372,30.3801 -135.333,57.5484 -12.4808,6.9632 -23.2428,12.6606 -23.9154,12.661 -3.6008,0 2.7176,-45.0472 11.4494,-81.6331 33.9197,-142.1217 116.3432,-242.8926 259.581,-317.3634 143.4567,-74.5844 342.0869,-113.8985 534.8767,-105.866 332.9707,13.8731 506.7457,137.7524 552.6376,393.9599 11.412,63.7115 12.9775,86.5647 12.9985,189.7512 0.024,115.7525 -4.8316,182.0908 -19.8624,271.3906 -6.7579,40.1497 -19.0646,96.573 -21.0077,96.3156 -0.6924,-0.092 -17.9615,-12.5728 -38.3757,-27.7359 z"
       id="path3371" />
    <rect
       style="opacity:1;fill:none;fill-opacity:0.761765;fill-rule:evenodd;stroke:none;stroke-width:10.296;stroke-linecap:square;stroke-linejoin:round;stroke-miterlimit:4;stroke-dasharray:none;paint-order:stroke fill markers"
       id="rect3389"
       width="803.05902"
       height="803.05902"
       x="-3.3639457"
       y="0.8773458"
       ry="160.93884" />
    <path
       style="fill:none;stroke:none;stroke-width:1.09618px;stroke-linecap:butt;stroke-linejoin:miter;stroke-opacity:1"
       d="M 798.97914,670.03948 C 650.95025,542.28521 502.92019,414.52993 401.98914,362.86645 301.0581,311.20297 247.22889,335.63155 187.59482,375.36445 127.96074,415.09736 62.525884,470.13175 -2.9103837,525.16733"
       id="path3391"
       inkscape:path-effect="#path-effect3393"
       inkscape:original-d="M 798.97914,670.03948 C 650.95018,542.28529 502.92012,414.53001 354.88896,286.77364 301.0587,311.2043 247.22949,335.63287 193.39811,360.06085 127.96173,415.09853 62.526876,470.13293 -2.9103837,525.16733" />
    <path
       style="fill:none;stroke:none;stroke-width:1.09618px;stroke-linecap:butt;stroke-linejoin:miter;stroke-opacity:1"
       d="m 494.3995,419.18124 c 52.66501,-31.7884 105.32971,-63.5766 155.4918,-65.73039 50.16209,-2.15378 97.81871,25.32482 145.47498,52.80322"
       id="path3395"
       inkscape:path-effect="#path-effect3397"
       inkscape:original-d="m 494.3995,419.18124 c 52.66579,-31.78711 105.33048,-63.57532 157.99407,-95.36461 47.65962,27.48078 95.31624,54.95938 142.97271,82.43744" />
    <path
       style="fill:none;stroke:none;stroke-width:1.09618px;stroke-linecap:butt;stroke-linejoin:miter;stroke-opacity:1"
       d="M -1.6858222,655.31723 C 130.78416,643.63295 263.25315,631.94876 372.1086,649.32822 c 108.85545,17.37946 194.09361,63.8199 261.30328,72.11495 67.20966,8.29506 116.38813,-21.55411 165.56726,-51.40369"
       id="path3399"
       inkscape:path-effect="#path-effect3401"
       inkscape:original-d="M -1.6858222,655.31723 C 130.78426,643.63413 263.25325,631.94994 395.72115,620.26465 c 85.24269,46.44341 170.48085,92.88385 255.71964,139.32414 49.18153,-29.84928 98.35999,-59.69846 147.53835,-89.54931" />
    <path
       style="opacity:1;fill:#666666;fill-opacity:0.764706;fill-rule:evenodd;stroke:none;stroke-width:92.9646;stroke-linecap:square;stroke-linejoin:round;stroke-miterlimit:4;stroke-dasharray:none;paint-order:stroke fill markers"
       d="M 512.04013,680.31277 442.07506,657.60375 383.17976,644.4935 198.26598,641.74732 5.3646587,642.34586 5.3367384,584.2137 5.3088192,526.08153 72.681805,471.1555 C 219.78227,351.2315 272.50166,327.47815 347.08084,347.52182 c 50.32525,13.52526 174.90072,97.44915 304.34489,205.03076 152.80976,127.00088 144.52269,115.38799 98.95206,138.66399 -66.97995,34.21116 -104.37891,32.5002 -238.33766,-10.9038 z"
       id="path3403"
       sodipodi:nodetypes="sccccccsssss" />
    <path
       style="opacity:1;fill:#333333;fill-opacity:0.764706;fill-rule:evenodd;stroke:none;stroke-width:16.434;stroke-linecap:square;stroke-linejoin:round;stroke-miterlimit:4;stroke-dasharray:none;paint-order:stroke fill markers"
       d="M 740.03516,617.24725 C 641.20849,534.92934 578.84045,481.54071 524.98557,441.33649 c -25.32492,-18.9058 -28.12388,-21.46053 -25.48384,-23.26027 6.12099,-4.17274 39.68363,-23.62406 54.71857,-31.7123 19.77894,-10.64035 47.71933,-22.09648 65.72298,-26.94776 19.20994,-5.17634 52.29208,-5.2373 71.11828,-0.13106 25.52989,6.9245 57.83635,21.70711 96.11853,43.98139 l 6.98639,4.065 -0.0365,121.13134 c -0.0201,66.62224 2.01301,124.77391 0.47221,127.77561 l -0.51871,6.02848 z"
       id="path3405"
       sodipodi:nodetypes="ssssssscsscs" />
    <path
       style="opacity:1;fill:#87ccdd;fill-opacity:0.764706;fill-rule:evenodd;stroke:none;stroke-width:46.4823;stroke-linecap:square;stroke-linejoin:round;stroke-miterlimit:4;stroke-dasharray:none;paint-order:stroke fill markers"
       d="m 3.756943,322.05414 1.310662,-192.46718 13.3982,-29.04615 C 34.418654,65.956411 62.484549,38.423006 99.490108,21.053778 c 0,0 22.013982,-12.4198954 34.216922,-13.2541637 82.04538,-5.6091258 236.16389,-0.7064461 236.16389,-0.7064461 261.7877,-0.783097 301.14822,0.5569955 338.32193,19.3719138 27.31741,13.82629 58.48888,46.767892 72.07044,76.163118 9.557,20.68461 15.58808,29.50825 14.54228,159.90063 l -1.11123,138.55093 -34.095,-18.36947 C 676.95977,338.18627 624.29787,340.8158 530.93976,394.12779 l -36.68084,20.94653 -40.46439,-25.62477 c -22.25543,-14.09361 -55.95418,-32.33086 -74.88612,-40.5272 -30.72298,-13.30111 -39.16667,-14.90411 -78.57993,-14.91811 -41.02438,-0.0146 -46.30187,1.09116 -74.36422,15.5806 -37.98718,19.61391 -75.21964,46.08283 -148.008959,105.22099 -31.568131,25.64773 -61.471894,49.57594 -66.452809,53.17383 -8.9427149,6.45967 -9.0397857,4.12957 -7.745549,-185.92552 z"
       id="path3407"
       sodipodi:nodetypes="scssssssscsscsssssss" />
    <path
       style="opacity:1;fill:#aade87;fill-opacity:0.764706;fill-rule:evenodd;stroke:none;stroke-width:65.736;stroke-linecap:square;stroke-linejoin:round;stroke-miterlimit:4;stroke-dasharray:none;paint-order:stroke fill markers"
       d="M 111.24573,787.53465 C 61.266707,769.44099 19.260878,724.81857 10.344608,680.34828 6.6165961,661.75467 7.7597377,660.46751 31.683704,656.32084 c 13.902967,-2.40977 80.053676,-6.27358 147.001576,-8.58627 150.88551,-5.21227 200.11602,1.31719 333.50853,44.2334 125.29945,40.31245 167.01319,42.62311 230.09033,12.7455 22.5916,-10.7009 41.07671,-17.20281 41.07802,-14.44869 0.007,16.93768 -42.494,68.02514 -70.11553,84.27878 l -31.72571,18.66865 -272.80329,1.62656 c -216.53605,1.29106 -277.89133,-0.21541 -297.4719,-7.30412 z"
       id="path3413" />
    <path
       style="opacity:1;fill:#ffffff;fill-opacity:0.764706;fill-rule:evenodd;stroke:none;stroke-width:4.1085;stroke-linecap:square;stroke-linejoin:round;stroke-miterlimit:4;stroke-dasharray:none;paint-order:stroke fill markers"
       d="M 684.68485,579.82212 C 637.59901,540.75413 623.74439,529.40127 604.34144,513.98649 513.88914,442.12607 429.29448,384.48242 377.58596,359.47302 359.97277,350.9542 348.62467,347.0573 332.258,343.90759 c -49.52885,-9.53168 -91.56577,3.7636 -159.7768,50.53357 -12.50175,8.57203 -32.84868,23.51002 -48.37143,35.5126 l -6.47943,5.01006 0.11076,-6.04579 0.11077,-6.04579 6.77648,-5.28322 c 43.60349,-33.99509 75.4328,-55.07857 107.18303,-70.99715 20.08682,-10.0709 27.00819,-11.70274 52.43062,-12.36143 25.06059,-0.64932 47.63542,0.2175 58.50848,2.24654 16.04651,2.99449 42.43236,14.23952 74.37898,31.69863 18.61344,10.17241 24.71799,13.82978 53.83679,32.25486 11.4148,7.22279 21.32536,13.47243 22.02343,13.8881 l 1.26924,0.75575 18.0361,-10.31748 c 25.73626,-14.72232 32.28565,-18.33235 44.32369,-24.43125 31.01723,-15.71443 55.90725,-24.22393 80.71868,-27.59642 7.66616,-1.04201 26.33122,-1.27658 34.37408,-0.43198 16.77535,1.76161 33.56552,6.10028 51.70509,13.36088 14.03067,5.61595 22.35221,9.70919 50.25787,24.72111 10.91655,5.87257 19.91589,10.60917 19.99859,10.52578 0.0826,-0.0835 -0.11251,-21.87517 -0.43373,-48.42617 -0.32126,-26.55099 -0.78817,-65.19117 -1.03758,-85.86705 -1.59781,-132.44681 -2.36076,-143.32435 -11.46388,-163.44263 -0.18077,-0.39956 0.0712,-0.50998 0.93843,-0.4113 1.10594,0.12584 1.3059,0.45214 2.9775,4.8588 3.62702,9.56148 6.60199,21.65787 8.5877,34.91809 0.65494,4.37358 0.72133,14.37694 0.89396,134.70726 l 0.18645,129.98283 -1.01988,-0.66754 c -0.56095,-0.36715 -5.511,-3.23031 -11.00018,-6.36256 -31.33422,-17.88014 -57.31307,-30.12665 -79.8071,-37.62135 -17.76937,-5.92053 -29.14264,-7.4859 -50.98165,-7.01691 -11.73975,0.25211 -17.86973,0.81133 -25.87096,2.36013 -15.9811,3.09344 -49.23512,16.25535 -71.89643,28.45651 -13.80997,7.43551 -51.35269,29.20071 -54.37845,31.52566 -0.7503,0.57651 -0.92167,0.9983 -0.72436,1.78285 0.5735,2.28036 4.51799,5.5418 29.25038,24.18524 46.19975,34.82567 96.35201,75.34819 159.38782,128.78369 l 15.12743,12.82358 -5.46631,-0.008 -5.46632,-0.008 z"
       id="path3415" />
  </g>
</svg>
