<?xml version="1.0" encoding="UTF-8" standalone="no"?>
<svg
   xmlns:dc="http://purl.org/dc/elements/1.1/"
   xmlns:cc="http://creativecommons.org/ns#"
   xmlns:rdf="http://www.w3.org/1999/02/22-rdf-syntax-ns#"
   xmlns:svg="http://www.w3.org/2000/svg"
   xmlns="http://www.w3.org/2000/svg"
   xmlns:sodipodi="http://sodipodi.sourceforge.net/DTD/sodipodi-0.dtd"
   xmlns:inkscape="http://www.inkscape.org/namespaces/inkscape"
   width="800px"
   height="800px"
   viewBox="0 0 800 800"
   version="1.1"
   id="SVGRoot"
   sodipodi:docname="icon.svg"
   inkscape:version="1.0.2-2 (e86c870879, 2021-01-15)">
  <defs
     id="defs3128">
    <inkscape:path-effect
       effect="bspline"
       id="path-effect3724"
       is_visible="true"
       lpeversion="1"
       weight="33.333333"
       steps="2"
       helper_size="0"
       apply_no_weight="true"
       apply_with_weight="true"
       only_selected="false" />
    <inkscape:path-effect
       effect="bspline"
       id="path-effect3720"
       is_visible="true"
       lpeversion="1"
       weight="33.333333"
       steps="2"
       helper_size="0"
       apply_no_weight="true"
       apply_with_weight="true"
       only_selected="false" />
    <inkscape:path-effect
       effect="bspline"
       id="path-effect3716"
       is_visible="true"
       lpeversion="1"
       weight="33.333333"
       steps="2"
       helper_size="0"
       apply_no_weight="true"
       apply_with_weight="true"
       only_selected="false" />
    <inkscape:path-effect
       effect="bspline"
       id="path-effect3712"
       is_visible="true"
       lpeversion="1"
       weight="33.333333"
       steps="2"
       helper_size="0"
       apply_no_weight="true"
       apply_with_weight="true"
       only_selected="false" />
    <inkscape:path-effect
       effect="bspline"
       id="path-effect3708"
       is_visible="true"
       lpeversion="1"
       weight="33.333333"
       steps="2"
       helper_size="0"
       apply_no_weight="true"
       apply_with_weight="true"
       only_selected="false" />
    <inkscape:path-effect
       effect="bspline"
       id="path-effect3704"
       is_visible="true"
       lpeversion="1"
       weight="33.333333"
       steps="2"
       helper_size="0"
       apply_no_weight="true"
       apply_with_weight="true"
       only_selected="false" />
  </defs>
  <sodipodi:namedview
     id="base"
     pagecolor="#ffffff"
     bordercolor="#666666"
     borderopacity="1.0"
     inkscape:pageopacity="0.0"
     inkscape:pageshadow="2"
     inkscape:zoom="0.48317402"
     inkscape:cx="641.69596"
     inkscape:cy="360.00958"
     inkscape:document-units="px"
     inkscape:current-layer="layer1"
     inkscape:document-rotation="0"
     showgrid="false"
     inkscape:window-width="1920"
     inkscape:window-height="1001"
     inkscape:window-x="-9"
     inkscape:window-y="-9"
     inkscape:window-maximized="1" />
  <metadata
     id="metadata3131">
    <rdf:RDF>
      <cc:Work
         rdf:about="">
        <dc:format>image/svg+xml</dc:format>
        <dc:type
           rdf:resource="http://purl.org/dc/dcmitype/StillImage" />
        <dc:title></dc:title>
      </cc:Work>
    </rdf:RDF>
  </metadata>
  <g
     inkscape:label="Layer 1"
     inkscape:groupmode="layer"
     id="layer1">
    <path
       style="fill:none;stroke:#000000;stroke-width:1px;stroke-linecap:butt;stroke-linejoin:miter;stroke-opacity:1"
       d="M -26.90542,-43.462601 C 75.197536,320.1067 177.30016,683.67481 190.75217,882.01567 204.20417,1080.3565 129.00848,1113.4702 53.81084,1146.5848"
       id="path3702"
       inkscape:path-effect="#path-effect3704"
       inkscape:original-d="M -26.90542,-43.462601 C 75.198199,320.10651 177.30082,683.67462 279.40244,1047.2417 c -75.19771,33.1161 -150.3934,66.2298 -225.5916,99.3431" />
    <path
       style="fill:none;stroke:#000000;stroke-width:1px;stroke-linecap:butt;stroke-linejoin:miter;stroke-opacity:1"
       d="m 113.83062,-101.41274 c 124.8694,225.59279 249.73815,451.18439 310.4475,546.38778 60.70935,95.20339 57.26001,60.02008 53.81049,24.83498"
       id="path3706"
       inkscape:path-effect="#path-effect3708"
       inkscape:original-d="m 113.83062,-101.41274 c 124.86975,225.5926 249.73849,451.1842 374.60623,676.7748 -3.44848,-35.18372 -6.89782,-70.36703 -10.34824,-105.55204" />
    <path
       style="fill:none;stroke:#000000;stroke-width:1px;stroke-linecap:butt;stroke-linejoin:miter;stroke-opacity:1"
       d="M 478.08861,469.81002 C 415.99955,271.12504 353.91012,72.438863 311.48225,-47.946068 269.05439,-168.331 246.28872,-210.41299 215.93368,-231.11007 c -30.35505,-20.69707 -68.29783,-20.0072 -106.24235,-19.3173"
       id="path3710"
       inkscape:path-effect="#path-effect3712"
       inkscape:original-d="M 478.08861,469.81002 C 416.00018,271.12484 353.91075,72.438667 291.82032,-126.24851 c -22.76558,-42.08268 -45.53125,-84.16467 -68.29837,-126.24851 -37.9433,0.6909 -75.88608,1.38077 -113.83062,2.06965"
       sodipodi:nodetypes="cccc" />
    <path
       style="fill:none;stroke:#000000;stroke-width:1px;stroke-linecap:butt;stroke-linejoin:miter;stroke-opacity:1"
       d="m 345.63116,947.89864 c -46.91172,-188.33676 -93.82373,-376.6747 -54.15401,-367.35922 39.66972,9.31548 165.91571,216.27611 229.72951,319.068 63.81379,102.79188 65.19351,101.41218 66.57328,100.03241"
       id="path3714"
       inkscape:path-effect="#path-effect3716"
       inkscape:original-d="M 345.63116,947.89864 C 298.72015,759.5617 251.80813,571.22376 204.89512,382.88482 c 126.25203,206.96991 252.49802,413.93054 378.74553,620.89428 1.38079,-1.3788 2.76053,-2.7585 4.13929,-4.13927" />
    <path
       style="fill:none;stroke:#000000;stroke-width:1px;stroke-linecap:butt;stroke-linejoin:miter;stroke-opacity:1"
       d="m 451.18319,-184.19864 c 2.76074,1.38037 5.52027,2.76013 76.92412,212.143959 C 599.51115,237.32915 739.55451,654.69975 906.85323,858.90428 1074.152,1063.1088 1268.695,1054.1405 1463.2409,1045.1721"
       id="path3718"
       inkscape:path-effect="#path-effect3720"
       inkscape:original-d="m 451.18319,-184.19864 c 2.76054,1.38076 5.52007,2.76053 8.2786,4.13929 140.04996,417.3883 280.09332,834.7589 420.13848,1252.13685 194.55173,-8.9677 389.09473,-17.9359 583.64063,-26.9054" />
    <path
       style="fill:none;stroke:#000000;stroke-width:1px;stroke-linecap:butt;stroke-linejoin:miter;stroke-opacity:1"
       d="M 1272.8333,840.27696 C 782.32772,885.11924 291.82122,929.96161 31.734853,870.28574 -228.35152,810.60987 -258.01587,646.4211 -253.18648,468.08435 -248.35709,289.74759 -209.03457,97.274205 -165.57081,9.6591291 -122.10706,-77.955947 -74.506113,-60.709229 -52.085614,-41.392093 -29.665116,-22.074957 -32.424591,-0.68902582 -3.1037164,-5.5190422 26.217158,-10.349059 87.615478,-41.393154 135.90731,-93.134764 c 48.29184,-51.741606 83.47514,-124.177826 163.1585,-119.347656 79.68336,4.83017 203.85973,86.92456 311.13728,126.247428 107.27754,39.322872 197.65035,35.873528 345.63221,143.842875 147.9819,107.969347 353.5628,327.347617 447.731,510.512827 94.1683,183.16521 76.9216,330.10727 5.5179,420.82664 -71.4037,90.71935 -196.9598,125.21285 -322.5192,159.70715"
       id="path3722"
       inkscape:path-effect="#path-effect3724"
       inkscape:original-d="m 1272.8333,840.27696 c -490.50548,44.84337 -981.01198,89.68573 -1471.51948,134.5271 -29.66454,-164.19433 -59.3289,-328.3831 -88.99485,-492.57615 39.32509,-192.48008 78.64761,-384.953469 117.96992,-577.431703 47.60385,17.248409 95.204793,34.495128 142.80569,51.741192 -2.758585,21.387787 -5.51806,42.77371856 -8.278591,64.159078 61.401776,-31.044336 122.800096,-62.088431 184.198641,-93.134146 35.18572,-72.438121 70.36902,-144.874341 105.55204,-217.313011 124.18234,82.09867 248.35872,164.19305 372.53658,246.288079 90.37742,-3.448482 180.75023,-6.897826 271.12384,-10.348239 205.59011,219.38804 411.17101,438.76631 616.75501,658.14796 -17.2464,146.94893 -34.4931,293.89099 -51.7412,440.83498 -125.5601,34.4958 -251.1162,68.9892 -376.6759,103.4824" />
    <path
       style="opacity:0.680782;fill:#93ac93;stroke:#ffffff;stroke-width:2.06965;stroke-linecap:square;stroke-linejoin:round;paint-order:stroke fill markers"
       d="m 161.53964,888.69818 c -229.196498,-22.79108 -346.44784,-91.0694 -392.2756,-228.43163 -14.88436,-44.61378 -20.61911,-90.16397 -20.61911,-163.77436 0,-114.23212 15.89315,-244.53883 43.28495,-354.88994 32.54134,-131.096646 70.76302,-195.760907 116.077919,-196.383107 20.352872,-0.279457 36.973933,9.662411 53.74786,32.14922 5.922628,7.939752 12.990309,15.4482806 15.705977,16.6856195 3.451199,1.5724728 5.858696,5.42855134 7.99747,12.8095545 C -4.0775415,42.972751 53.821101,253.08043 70.284983,314.68715 141.47691,581.08239 179.19622,759.6142 188.6175,874.77494 c 0.76828,9.39103 1.04377,16.96751 0.61223,16.83665 -0.43157,-0.13081 -12.89211,-1.44191 -27.69009,-2.91341 z"
       id="path3726" />
    <path
       style="opacity:0.680782;fill:#93ac93;stroke:#ffffff;stroke-width:2.06965;stroke-linecap:square;stroke-linejoin:round;paint-order:stroke fill markers"
       d="M 1269.836,1044.7436 C 1135.6011,1033.9122 1034.7171,988.58319 946.04512,899.25864 l -24.72674,-24.90872 6.09991,-1.49427 c 3.35496,-0.82183 30.31481,-3.43903 59.91078,-5.81596 81.71313,-6.56258 285.49613,-25.11443 286.47373,-26.07977 0.4743,-0.46836 0.4743,-1.17271 0,-1.56519 -0.4743,-0.39247 -44.6354,3.26613 -98.1358,8.13023 -53.5004,4.86411 -132.8788,11.86569 -176.39644,15.55904 -92.0932,7.81598 -78.7532,10.64771 -104.15071,-22.10856 C 809.11245,730.04795 718.21714,546.2239 622.26211,289.1559 592.4538,209.29804 583.90543,185.15682 533.0042,37.08504 c -23.67395,-68.867527 -47.73501,-138.4853 -53.46903,-154.70616 -5.73403,-16.22087 -9.98799,-29.49248 -9.45326,-29.49248 0.53473,0 20.27458,9.20349 43.86634,20.4522 78.00403,37.192869 101.50455,45.896203 187.96878,69.613579 102.48403,28.111652 151.73328,48.8781078 217.11366,91.548218 141.18721,92.144963 331.24551,290.216973 436.82991,455.248563 57.8537,90.42701 89.9854,166.70642 105.7373,251.01629 5.7379,30.71123 5.2329,101.47394 -0.926,129.74292 -15.1994,69.76439 -50.0228,125.99322 -102.6671,165.77493 l -14.2788,10.79 -26.0794,-0.288 c -14.3436,-0.1584 -35.8584,-1.077 -47.8106,-2.0415 z"
       id="path3728" />
    <path
       style="opacity:0.680782;fill:#93ac93;stroke:#ffffff;stroke-width:2.06965;stroke-linecap:square;stroke-linejoin:round;paint-order:stroke fill markers"
       d="M 326.11541,862.35705 C 310.51571,797.75977 297.51159,740.23506 291.14232,707.65089 276.39583,632.2102 274.55583,587.00711 286.05194,582.59564 c 15.8192,-6.0704 66.44872,55.36092 141.71274,171.94711 55.07255,85.30902 87.01156,137.87378 84.65777,139.32852 -2.41749,1.4941 -98.4039,4.18721 -149.23798,4.18721 h -28.44746 z"
       id="path3730" />
    <path
       style="opacity:0.680782;fill:#93ac93;stroke:#ffffff;stroke-width:2.06965;stroke-linecap:square;stroke-linejoin:round;paint-order:stroke fill markers"
       d="M 463.02613,495.21368 C 433.88959,464.89134 345.06461,313.23532 155.45754,-29.915919 l -28.44433,-51.478602 9.19972,-9.576005 c 5.05985,-5.266802 19.93859,-22.614784 33.06388,-38.551074 13.12529,-15.93629 30.25831,-35.08592 38.07339,-42.55475 13.80322,-13.19166 31.74713,-26.77845 35.36599,-26.77845 1.89025,0 13.30051,18.93494 21.82561,36.21884 27.29544,55.33916 78.32387,206.071879 183.51446,542.08264 26.23328,83.79703 29.10465,94.45365 29.10465,108.01694 0,8.5387 -0.96648,15.64517 -2.23431,16.42874 -1.22887,0.75947 -6.58408,-3.14593 -11.90047,-8.67868 z"
       id="path3732" />
    <path
       style="opacity:0.680782;fill:#c8ab37;stroke:#ffffff;stroke-width:2.06965;stroke-linecap:square;stroke-linejoin:round;paint-order:stroke fill markers"
       d="m 299.17121,896.64323 c -51.30528,-1.28024 -104.41737,-5.02612 -105.97329,-7.47408 -0.87175,-1.37155 -1.60039,-6.68477 -1.61921,-11.80715 -0.0451,-12.27117 -5.35609,-58.43472 -10.59584,-92.09932 C 158.35443,639.8786 115.11536,460.9785 18.6101,113.45104 1.0344705,50.159025 -13.345589,-2.2289323 -13.345589,-2.9666376 c 0,-0.7377052 3.289074,-1.3412765 7.3090544,-1.3412765 22.8469726,0 77.1917976,-28.9128619 115.9653746,-61.6965989 l 14.61793,-12.359715 38.04302,68.5902833 C 356.58342,339.99009 432.00196,468.54441 460.54197,498.09906 c 10.14051,10.50102 17.8526,11.81262 19.96517,3.39547 3.56958,-14.22231 -1.23626,-33.70498 -34.40456,-139.4748 -115.18155,-367.3002337 -159.40019,-494.91526 -189.57211,-547.1051 -5.16392,-8.93226 -9.0912,-16.49027 -8.72727,-16.79557 0.3639,-0.3053 5.78402,-2.3105 12.0447,-4.45601 17.61606,-6.03692 49.20867,-5.26442 75.02335,1.83447 23.36125,6.42422 63.39465,22.39103 102.14584,40.73958 l 27.11974,12.8411 11.86616,33.46622 c 6.52636,18.406428 27.66922,79.567632 46.9841,135.91379 45.44688,132.57944 71.88269,207.5179 95.1125,269.61828 100.95599,269.88632 192.50526,453.01156 283.21839,566.51938 11.2788,14.11297 11.9884,15.56872 7.81516,16.03299 -49.67293,5.526 -334.99955,23.29831 -372.98727,23.23247 l -16.55718,-0.0288 -37.75367,-60.49392 C 412.07583,721.5613 366.03461,654.07266 331.97858,613.67446 304.14515,580.6577 286.03638,571.47937 278.51449,586.5765 c -10.3667,20.80697 4.32867,113.0842 43.09474,270.60643 l 10.05944,40.87555 -5.38309,-0.43649 c -2.96069,-0.24006 -15.16215,-0.6805 -27.11437,-0.97876 z"
       id="path3734" />
  </g>
</svg>
